<svg xmlns="http://www.w3.org/2000/svg" width="14" height="11" viewBox="0 0 14 11" fill="none">
<path opacity="0.35" fill-rule="evenodd" clip-rule="evenodd" d="M2.252 0.497849C1.72028 0.497849 1.51002 0.569669 1.29299 0.774975C1.10977 0.948302 0.96755 1.19986 0.869561 1.52396C0.753494 1.90785 0.712891 2.27976 0.712891 3.2203V7.41455C0.712891 8.35509 0.753494 8.72701 0.869561 9.1109C0.96755 9.43499 1.10977 9.68656 1.29299 9.85988C1.51002 10.0652 1.72028 10.137 2.252 10.137H10.2484C10.7801 10.137 10.9904 10.0652 11.2074 9.85988C11.3906 9.68656 11.5328 9.43499 11.6308 9.1109C11.7469 8.72701 11.7875 8.35509 11.7875 7.41455V3.2203C11.7875 2.27976 11.7469 1.90785 11.6308 1.52396C11.5328 1.19986 11.3906 0.948302 11.2074 0.774975C10.9904 0.569669 10.7801 0.497849 10.2484 0.497849H2.252Z" stroke="white" stroke-width="0.933045"/>
<path opacity="0.4" d="M12.5786 3.45177V7.18306C13.003 6.86704 13.279 6.13189 13.279 5.31741C13.279 4.50293 13.003 3.76779 12.5786 3.45177Z" fill="white"/>
<path d="M2.4053 1.89708H10.095C10.4084 1.89708 10.5221 1.95481 10.6367 2.0632C10.7513 2.1716 10.8412 2.33067 10.9025 2.53336C10.9638 2.73605 10.9964 2.93709 10.9964 3.49151V7.14334C10.9964 7.69776 10.9638 7.89881 10.9025 8.10149C10.8412 8.30418 10.7513 8.46325 10.6367 8.57165C10.5221 8.68005 10.4084 8.73777 10.095 8.73777H2.4053C2.09187 8.73777 1.97821 8.68005 1.86362 8.57165C1.74903 8.46325 1.65911 8.30418 1.59782 8.10149C1.53654 7.89881 1.50391 7.69776 1.50391 7.14334V3.49151C1.50391 2.93709 1.53654 2.73605 1.59782 2.53336C1.65911 2.33067 1.74903 2.1716 1.86362 2.0632C1.97821 1.95481 2.09187 1.89708 2.4053 1.89708Z" fill="white"/>
</svg>