<svg width="20" height="12" viewBox="0 0 20 12" fill="none" xmlns="http://www.w3.org/2000/svg">
<path d="M6.70005 9.89997L2.80005 5.99997L6.70005 2.09997C6.79269 2.00845 6.86624 1.89945 6.91644 1.77929C6.96664 1.65913 6.99249 1.5302 6.99249 1.39997C6.99249 1.26975 6.96664 1.14082 6.91644 1.02066C6.86624 0.900496 6.79269 0.791494 6.70005 0.699971C6.60852 0.607331 6.49952 0.53378 6.37936 0.483581C6.2592 0.433381 6.13027 0.407532 6.00005 0.407532C5.86982 0.407532 5.74089 0.433381 5.62073 0.483581C5.50057 0.53378 5.39157 0.607331 5.30005 0.699971L0.710047 5.28997C0.617343 5.38248 0.543795 5.49237 0.493614 5.61335C0.443432 5.73432 0.417603 5.864 0.417603 5.99497C0.417603 6.12594 0.443432 6.25562 0.493614 6.3766C0.543795 6.49757 0.617343 6.60746 0.710047 6.69997L5.30005 11.3C5.69005 11.69 6.31005 11.69 6.70005 11.3C6.79269 11.2084 6.86624 11.0994 6.91644 10.9793C6.96664 10.8591 6.99249 10.7302 6.99249 10.6C6.99249 10.4697 6.96664 10.3408 6.91644 10.2207C6.86624 10.1005 6.79269 9.99149 6.70005 9.89997ZM13.3 9.89997L17.2 5.99997L13.3 2.09997C13.2074 2.00845 13.1339 1.89945 13.0837 1.77929C13.0335 1.65913 13.0076 1.5302 13.0076 1.39997C13.0076 1.26975 13.0335 1.14082 13.0837 1.02066C13.1339 0.900496 13.2074 0.791494 13.3 0.699971C13.3916 0.607331 13.5006 0.53378 13.6207 0.483581C13.7409 0.433381 13.8698 0.407532 14 0.407532C14.1303 0.407532 14.2592 0.433381 14.3794 0.483581C14.4995 0.53378 14.6085 0.607331 14.7 0.699971L19.29 5.28997C19.68 5.67997 19.68 6.30997 19.29 6.69997L14.7 11.3C14.6085 11.3926 14.4995 11.4662 14.3794 11.5164C14.2592 11.5666 14.1303 11.5924 14 11.5924C13.8698 11.5924 13.7409 11.5666 13.6207 11.5164C13.5006 11.4662 13.3916 11.3926 13.3 11.3C13.2074 11.2084 13.1339 11.0994 13.0837 10.9793C13.0335 10.8591 13.0076 10.7302 13.0076 10.6C13.0076 10.4697 13.0335 10.3408 13.0837 10.2207C13.1339 10.1005 13.2074 9.99149 13.3 9.89997Z" fill="black"/>
</svg>
