<svg width="20" height="20" viewBox="0 0 20 20" fill="none" xmlns="http://www.w3.org/2000/svg">
<path d="M14 19V15C14 14.0572 14 13.5858 13.7071 13.2929C13.4142 13 12.9428 13 12 13H7C6.05719 13 5.58579 13 5.29289 13.2929C5 13.5858 5 14.0572 5 15V19" stroke="#FFF" stroke-width="1.5"/>
<path d="M5 6H10" stroke="#FFF" stroke-width="1.5" stroke-linecap="round"/>
<path d="M1 5C1 3.11438 1 2.17157 1.58579 1.58579C2.17157 1 3.11438 1 5 1H14.1716C14.5803 1 14.7847 1 14.9685 1.07612C15.1522 1.15224 15.2968 1.29676 15.5858 1.58579L18.4142 4.41421C18.7032 4.70324 18.8478 4.84776 18.9239 5.03153C19 5.2153 19 5.41968 19 5.82843V15C19 16.8856 19 17.8284 18.4142 18.4142C17.8284 19 16.8856 19 15 19H5C3.11438 19 2.17157 19 1.58579 18.4142C1 17.8284 1 16.8856 1 15V5Z" stroke="#FFF" stroke-width="1.5"/>
</svg>
