<svg width="18" height="11" viewBox="0 0 18 11" fill="none" xmlns="http://www.w3.org/2000/svg">
<path d="M1.01064 6.66667H2.02128C2.57944 6.66667 3.03191 7.11438 3.03191 7.66667V9.66667C3.03191 10.219 2.57944 10.6667 2.02128 10.6667H1.01064C0.452478 10.6667 0 10.219 0 9.66667V7.66667C0 7.11438 0.452478 6.66667 1.01064 6.66667ZM5.72694 4.66667H6.73758C7.29574 4.66667 7.74822 5.11438 7.74822 5.66667V9.66667C7.74822 10.219 7.29574 10.6667 6.73758 10.6667H5.72694C5.16878 10.6667 4.7163 10.219 4.7163 9.66667V5.66667C4.7163 5.11438 5.16878 4.66667 5.72694 4.66667ZM10.4433 2.33333H11.4539C12.0121 2.33333 12.4645 2.78105 12.4645 3.33333V9.66667C12.4645 10.219 12.0121 10.6667 11.4539 10.6667H10.4433C9.88511 10.6667 9.43263 10.219 9.43263 9.66667V3.33333C9.43263 2.78105 9.88511 2.33333 10.4433 2.33333ZM15.1596 0H16.1702C16.7284 0 17.1809 0.447715 17.1809 1V9.66667C17.1809 10.219 16.7284 10.6667 16.1702 10.6667H15.1596C14.6014 10.6667 14.1489 10.219 14.1489 9.66667V1C14.1489 0.447715 14.6014 0 15.1596 0Z" fill="#FFF"/>
</svg>
