<svg xmlns="http://www.w3.org/2000/svg" width="16" height="11" viewBox="0 0 16 11" fill="none">
<path d="M7.88512 2.62937C9.98298 2.62946 12.0006 3.42638 13.521 4.85543C13.6355 4.96576 13.8185 4.96436 13.9313 4.85231L15.0257 3.76034C15.0828 3.7035 15.1146 3.62652 15.1142 3.54642C15.1137 3.46632 15.0809 3.3897 15.0232 3.33353C11.0326 -0.44738 4.73699 -0.44738 0.746417 3.33353C0.68861 3.38966 0.655819 3.46625 0.65528 3.54635C0.654754 3.62645 0.686543 3.70346 0.743597 3.76034L1.83831 4.85231C1.951 4.96453 2.13417 4.96593 2.24859 4.85543C3.76918 3.42629 5.78706 2.62936 7.88512 2.62937ZM7.88512 6.18202C9.03776 6.18195 10.1493 6.60551 11.0036 7.37039C11.1192 7.47895 11.3012 7.47659 11.4139 7.36509L12.5071 6.27312C12.5646 6.21584 12.5966 6.13814 12.5957 6.0574C12.5949 5.97666 12.5614 5.89961 12.5027 5.84351C9.90084 3.4508 5.87159 3.4508 3.26978 5.84351C3.211 5.89961 3.17749 5.9767 3.17671 6.05746C3.17595 6.13823 3.208 6.21592 3.26569 6.27312L4.35853 7.36509C4.47118 7.47659 4.65322 7.47895 4.76878 7.37039C5.62261 6.60601 6.73324 6.18249 7.88512 6.18202ZM9.98591 8.78808C10.0444 8.73136 10.0766 8.65329 10.0749 8.57233C10.0732 8.49136 10.0378 8.41466 9.97708 8.36034C8.76945 7.35053 7.00076 7.35053 5.79313 8.36034C5.73233 8.41462 5.69688 8.49129 5.69515 8.57226C5.69341 8.65323 5.72556 8.73132 5.78398 8.78808L7.67525 10.6747C7.73068 10.7301 7.80627 10.7613 7.88512 10.7613C7.96398 10.7613 8.03953 10.7301 8.09496 10.6747L9.98591 8.78808Z" fill="white"/>
</svg>